<svg width="16" height="16" viewBox="0 0 16 16" fill="none" xmlns="http://www.w3.org/2000/svg">
<g clip-path="url(#clip0_2_21)">
<path d="M0.0310287 12.016V2.8C0.0310287 2.78933 0.0465439 2.688 0.0775742 2.496L5.33721 7.136L0.0930893 12.336C0.0517156 12.1867 0.0310287 12.08 0.0310287 12.016ZM0.72921 1.856C0.801615 1.824 0.889534 1.808 0.992968 1.808H15.1583C15.2514 1.808 15.3445 1.824 15.4376 1.856L10.1624 6.512L9.46424 7.088L8.08339 8.256L6.70254 7.088L6.00436 6.512L0.72921 1.856ZM0.744726 12.96L6.03539 7.728L8.08339 9.44L10.1314 7.728L15.4221 12.96C15.3393 12.992 15.2514 13.008 15.1583 13.008H0.992968C0.910221 13.008 0.827473 12.992 0.744726 12.96ZM10.8296 7.136L16.0737 2.496C16.1047 2.592 16.1202 2.69333 16.1202 2.8V12.016C16.1202 12.112 16.1047 12.2187 16.0737 12.336L10.8296 7.136Z" fill="black"/>
</g>
<defs>
<clipPath id="clip0_2_21">
<rect width="16" height="16" fill="white"/>
</clipPath>
</defs>
</svg>
