<svg width="16" height="16" viewBox="0 0 16 16" fill="none" xmlns="http://www.w3.org/2000/svg">
<path d="M1.33334 1.33334L14.6667 14.6667" stroke="black" stroke-width="2" stroke-linecap="round" stroke-linejoin="round"/>
<path d="M7.33334 3.37215C7.55027 3.34676 7.77254 3.33334 8 3.33334C12.2424 3.33334 14.6667 8 14.6667 8C14.6667 8 14.2055 8.8878 13.3333 9.889M4.47518 4.48174C2.4432 5.86352 1.33334 8 1.33334 8C1.33334 8 3.75758 12.6667 8 12.6667C9.36687 12.6667 10.5449 12.1823 11.5141 11.5256L4.47518 4.48174Z" stroke="black" stroke-width="2" stroke-linecap="round" stroke-linejoin="round"/>
<path d="M9.33333 9.49081C8.97947 9.80747 8.51227 10.0001 8 10.0001C6.8954 10.0001 6 9.10467 6 8.00007C6 7.45094 6.22129 6.95354 6.57955 6.59212" stroke="black" stroke-width="2" stroke-linecap="round" stroke-linejoin="round"/>
</svg>
